<?xml version="1.0" encoding="utf-8"?>
<!-- Generator: Adobe Illustrator 15.0.0, SVG Export Plug-In . SVG Version: 6.00 Build 0)  -->
<!DOCTYPE svg PUBLIC "-//W3C//DTD SVG 1.1//EN" "http://www.w3.org/Graphics/SVG/1.1/DTD/svg11.dtd">
<svg version="1.1" id="Layer_1" xmlns="http://www.w3.org/2000/svg" xmlns:xlink="http://www.w3.org/1999/xlink" x="0px" y="0px"
	 width="40px" height="40px" viewBox="0 0 40 40" enable-background="new 0 0 40 40" xml:space="preserve">
<g>
	<path fill="#363636" d="M11.44,7.21c0.949,0,1.779,0.662,1.935,1.632l2.299,11.551c0.069,0.314,0.034,0.628-0.07,0.942
		c0.279-0.593,0.871-1.046,1.602-1.116l12.887-1.117c0.063-0.006,0.126-0.009,0.188-0.009c0.999,0,1.838,0.771,1.937,1.79
		c0.104,1.081,0.175,1.954,0.175,1.954l-3.642,0.335l2.885,8.772c0.244,0.454,0.07,1.013-0.383,1.257
		c-0.14,0.069-0.278,0.104-0.453,0.104c-0.313,0-0.661-0.175-0.835-0.489l-3.233-9.471l-12.521,1.062l-3.319,8.409
		c-0.174,0.314-0.488,0.489-0.836,0.489c-0.14,0-0.314-0.035-0.453-0.104c-0.453-0.244-0.627-0.803-0.383-1.257l3.076-7.921
		l-0.592-3.489L9.196,7.586c0,0,0.87-0.139,1.915-0.35C11.222,7.218,11.332,7.21,11.44,7.21 M11.44,5.71
		c-0.189,0-0.38,0.015-0.568,0.045L10.843,5.76l-0.029,0.006c-1,0.202-1.846,0.337-1.854,0.338L7.428,6.349l0.295,1.522
		l2.508,12.947l0.517,3.047l-2.9,7.47c-0.556,1.158-0.103,2.568,1.044,3.186c0.381,0.191,0.78,0.284,1.165,0.284
		c0.907,0,1.71-0.472,2.148-1.262l0.047-0.086l0.036-0.091l2.978-7.544l10.426-0.884l2.854,8.361l0.043,0.126l0.064,0.115
		c0.424,0.768,1.268,1.264,2.147,1.264c0.4,0,0.767-0.085,1.12-0.261c1.175-0.632,1.632-2.015,1.109-3.165l-2.265-6.887l1.766-0.162
		l1.477-0.137l-0.119-1.478c0,0-0.071-0.884-0.177-1.979c-0.173-1.792-1.647-3.145-3.429-3.145c-0.001,0-0.001,0-0.001,0
		c-0.11,0-0.221,0.005-0.333,0.016l-12.872,1.116c-0.067,0.006-0.134,0.015-0.201,0.025L14.851,8.572
		C14.568,6.912,13.139,5.71,11.44,5.71L11.44,5.71z"/>
</g>
</svg>
