<?xml version="1.0" encoding="utf-8"?>
<!-- Generator: Adobe Illustrator 15.0.0, SVG Export Plug-In . SVG Version: 6.00 Build 0)  -->
<!DOCTYPE svg PUBLIC "-//W3C//DTD SVG 1.1//EN" "http://www.w3.org/Graphics/SVG/1.1/DTD/svg11.dtd">
<svg version="1.1" xmlns="http://www.w3.org/2000/svg" xmlns:xlink="http://www.w3.org/1999/xlink" x="0px" y="0px" width="110px"
	 height="70px" viewBox="0 0 110 70" enable-background="new 0 0 110 70" xml:space="preserve">
<g id="Layer_1" display="none">
	<path display="inline" fill="#FFFFFF" d="M7.986,32.636h30.699v20.644H7.986V32.636z M7.986,10.989h30.699v20.645H7.986V10.989z
		 M39.679,10.989H70.86v42.29H39.679V10.989z M71.853,10.989h30.699v42.29H71.853V10.989z M6,8.986v46.297h10.92l0.497,9.059h1.53
		l0.529-9.059h71.587l0.496,9.059h1.529l0.529-9.059h10.92V8.986H6z"/>
	<rect x="20.855" y="19.281" display="inline" fill="#FFFFFF" width="4.482" height="4.521"/>
	<rect x="20.855" y="40.892" display="inline" fill="#FFFFFF" width="4.482" height="4.522"/>
	<rect x="53.03" y="29.874" display="inline" fill="#FFFFFF" width="4.481" height="4.521"/>
	<rect x="85.202" y="29.874" display="inline" fill="#FFFFFF" width="4.48" height="4.521"/>
</g>
<g id="Layer_2">
	<g>
		<path fill="#363636" d="M75.886,8.937l2.787,2.787l1.291-2.257c0.06-0.162,0.092-0.331,0.092-0.506c0-0.788-0.643-1.43-1.43-1.43
			c-0.182,0-0.359,0.032-0.523,0.098L75.886,8.937z M69.384,12.776l5.53,5.528l2.796-4.894L74.22,9.92L69.384,12.776z M44.26,29.046
			l2.911,2.908l9.504-9.503L42.127,7.914l-9.504,9.504l2.555,2.552l3.115-3.114c0.366-0.366,0.959-0.366,1.325,0
			c0.366,0.366,0.366,0.958,0,1.324l-3.115,3.114l2.554,2.552l3.114-3.113c0.366-0.365,0.958-0.365,1.324,0
			c0.366,0.366,0.366,0.959,0,1.325l-3.112,3.113l2.554,2.552l3.112-3.112c0.367-0.365,0.958-0.365,1.325,0
			c0.366,0.367,0.366,0.959,0,1.325L44.26,29.046z M34.124,47.651l5.927,5.928c4.398-4.399,29.348-29.35,33.743-33.744l-5.926-5.927
			L34.124,47.651z M67.701,52.47l2.534,2.532l9.504-9.506L65.255,31.023l-9.502,9.504l2.867,2.866l3.181-3.181
			c0.365-0.366,0.957-0.366,1.324,0c0.367,0.367,0.367,0.959,0,1.325l-3.181,3.18l2.555,2.551l3.179-3.178
			c0.365-0.366,0.959-0.366,1.324,0c0.366,0.366,0.366,0.958,0,1.325l-3.178,3.179l2.555,2.551l3.178-3.176
			c0.365-0.367,0.957-0.367,1.324,0c0.364,0.366,0.364,0.958,0,1.324L67.701,52.47z M32.874,49.05
			c-0.417,0.661-0.64,1.426-0.64,2.227c0,2.312,1.88,4.192,4.191,4.192c0.8,0,1.565-0.223,2.227-0.64L32.874,49.05z M36.425,57.341
			c-3.343,0-6.064-2.72-6.064-6.064c0-1.618,0.63-3.142,1.776-4.286l13.71-13.71l-3.493-3.491c-0.03-0.023-0.058-0.048-0.086-0.076
			c-0.027-0.027-0.052-0.056-0.076-0.085l-3.73-3.728c-0.024-0.02-0.049-0.042-0.073-0.064c-0.022-0.022-0.043-0.047-0.064-0.071
			l-3.764-3.762c-0.017-0.014-0.033-0.029-0.049-0.045c-0.016-0.017-0.031-0.031-0.045-0.047l-3.833-3.829
			c-0.176-0.177-0.274-0.414-0.274-0.663s0.098-0.487,0.274-0.663L41.457,5.932c0.352-0.351,0.984-0.351,1.336,0l15.205,15.194
			l9.205-9.205c0.001-0.001,0-0.003,0.003-0.001c0.002-0.002,0.002-0.002,0.002-0.004h0.002c0.061-0.06,0.129-0.11,0.198-0.15
			l9.794-5.782c0.033-0.02,0.066-0.036,0.102-0.053c0.418-0.182,0.862-0.272,1.319-0.272c1.823,0,3.304,1.481,3.304,3.303
			c0,0.446-0.088,0.879-0.261,1.288c-0.02,0.049-0.044,0.095-0.071,0.137l-5.651,9.896c-0.042,0.076-0.097,0.149-0.163,0.215
			c-0.072,0.071-0.152,0.13-0.239,0.174c-0.636,0.702-2.059,2.124-5.239,5.306l-3.724,3.723l14.847,14.833
			c0.256,0.084,0.472,0.275,0.578,0.532c0.146,0.352,0.063,0.754-0.203,1.021L70.976,56.91c-0.176,0.176-0.412,0.273-0.662,0.273
			h-0.157c-0.248,0-0.485-0.098-0.662-0.273L54.425,41.853L40.713,55.564C39.566,56.711,38.044,57.341,36.425,57.341"/>
	</g>
</g>
</svg>
