<?xml version="1.0" encoding="utf-8"?>
<!-- Generator: Adobe Illustrator 15.1.0, SVG Export Plug-In  -->
<!DOCTYPE svg PUBLIC "-//W3C//DTD SVG 1.1//EN" "http://www.w3.org/Graphics/SVG/1.1/DTD/svg11.dtd" [
	<!ENTITY ns_flows "http://ns.adobe.com/Flows/1.0/">
]>
<svg version="1.1"
	 xmlns="http://www.w3.org/2000/svg" xmlns:xlink="http://www.w3.org/1999/xlink" xmlns:a="http://ns.adobe.com/AdobeSVGViewerExtensions/3.0/"
	 x="0px" y="0px" width="110px" height="70px" viewBox="-30.36 -5.659 110 70" enable-background="new -30.36 -5.659 110 70"
	 xml:space="preserve">
<defs>
</defs>
<path display="none" fill="#FFFFFF" d="M45.527,3.278l2.786,2.787l1.291-2.257c0.06-0.162,0.093-0.331,0.093-0.506
	c0-0.788-0.644-1.43-1.431-1.43c-0.183,0-0.358,0.032-0.522,0.098L45.527,3.278z M39.024,7.117l5.53,5.528l2.796-4.894l-3.489-3.49
	L39.024,7.117z M13.9,23.387l2.911,2.908l9.504-9.503L11.767,2.255l-9.504,9.504l2.555,2.552l3.115-3.114
	c0.366-0.366,0.959-0.366,1.325,0c0.366,0.366,0.366,0.958,0,1.324l-3.115,3.114l2.554,2.552l3.114-3.113
	c0.366-0.365,0.958-0.365,1.324,0c0.366,0.366,0.366,0.959,0,1.325l-3.112,3.113l2.554,2.552l3.112-3.112
	c0.367-0.365,0.958-0.365,1.325,0c0.366,0.367,0.366,0.959,0,1.325L13.9,23.387z M3.764,41.991l5.927,5.929
	c4.398-4.399,29.348-29.35,33.743-33.744l-5.926-5.927L3.764,41.991z M37.341,46.812l2.533,2.531l9.504-9.506L34.895,25.364
	l-9.502,9.504l2.867,2.865l3.181-3.181c0.365-0.366,0.957-0.366,1.324,0c0.367,0.367,0.367,0.959,0,1.325l-3.182,3.18l2.556,2.551
	l3.179-3.178c0.365-0.365,0.959-0.365,1.324,0c0.366,0.366,0.366,0.958,0,1.325l-3.178,3.179l2.555,2.551l3.178-3.176
	c0.365-0.367,0.957-0.367,1.324,0c0.364,0.366,0.364,0.959,0,1.324L37.341,46.812z M2.514,43.391
	c-0.417,0.661-0.64,1.427-0.64,2.228c0,2.312,1.88,4.191,4.191,4.191c0.8,0,1.565-0.223,2.227-0.64L2.514,43.391z M6.065,51.682
	c-3.343,0-6.064-2.72-6.064-6.063c0-1.618,0.63-3.143,1.776-4.286l13.71-13.71l-3.493-3.491c-0.03-0.023-0.058-0.048-0.086-0.076
	c-0.027-0.027-0.052-0.056-0.076-0.085l-3.73-3.728c-0.024-0.02-0.049-0.042-0.073-0.064c-0.022-0.022-0.043-0.047-0.064-0.071
	l-3.764-3.762c-0.017-0.014-0.033-0.029-0.049-0.045c-0.016-0.017-0.031-0.031-0.045-0.047l-3.833-3.829
	C0.098,12.247,0,12.01,0,11.761s0.098-0.487,0.274-0.663L11.097,0.273c0.352-0.351,0.984-0.351,1.336,0l15.205,15.194l9.205-9.205
	c0.001-0.001,0-0.003,0.003-0.001c0.002-0.002,0.002-0.002,0.002-0.004h0.002c0.062-0.06,0.129-0.11,0.198-0.15l9.794-5.782
	c0.032-0.02,0.065-0.036,0.103-0.053C47.363,0.09,47.806,0,48.263,0c1.822,0,3.304,1.481,3.304,3.303
	c0,0.446-0.088,0.879-0.261,1.288c-0.02,0.049-0.044,0.095-0.07,0.137l-5.652,9.896c-0.041,0.076-0.096,0.149-0.162,0.215
	c-0.072,0.071-0.152,0.13-0.239,0.174c-0.636,0.702-2.06,2.124-5.239,5.306l-3.724,3.723l14.847,14.833
	c0.256,0.084,0.473,0.274,0.578,0.532c0.146,0.352,0.063,0.754-0.203,1.021L40.617,51.251c-0.177,0.176-0.412,0.273-0.662,0.273
	h-0.157c-0.248,0-0.485-0.099-0.662-0.273l-15.07-15.057L10.353,49.905C9.206,51.052,7.684,51.682,6.065,51.682"/>
<path fill="none" stroke="#000000" stroke-width="2" stroke-linejoin="round" stroke-miterlimit="10" d="M29.392,26.737
	c-1.408,0.281-3.032-0.205-4.241-1.414c-1.207-1.207-1.696-2.833-1.415-4.242l0.001-0.001L11.009,8.353
	c-2.344-2.344-4.729-0.93-7.072,1.414c-2.343,2.343-3.756,4.728-1.414,7.07l12.729,12.729l0.002-0.003
	c1.408-0.279,3.033,0.209,4.24,1.416c1.209,1.209,1.696,2.832,1.415,4.242l1.413,1.414l8.485-8.483L29.392,26.737z"/>
<polyline fill="none" stroke="#000000" stroke-width="2" stroke-linejoin="round" stroke-miterlimit="10" points="28.065,30.894 
	53.322,56.15 50.322,59.15 25.065,33.894 "/>
<path fill="none" stroke="#000000" stroke-width="2" stroke-linecap="round" stroke-linejoin="round" stroke-miterlimit="10" d="
	M31.624,34.452l8.434-8.937c1.552-1.576,4.069-1.576,5.621,0c1.026,1.042,1.224,2.486,1.044,3.849
	c-0.341,2.579,0.361,3.291,0.361,3.291l2.109,2.142c0.388,0.396,1.017,0.396,1.404,0l8.434-8.565c0.389-0.396,0.389-1.034,0-1.429
	l-2.108-2.143c0,0-0.703-0.714-3.176-0.385c-1.365,0.182-2.808,0.018-3.852-1.044c-1.552-1.577-1.552-4.134,0-5.711l-5.622-5.712
	C35.841,1.24,21.322,7.141,21.322,7.141s8,0.951,13.113,6.951"/>
<path fill="none" stroke="#000000" stroke-width="2" stroke-linecap="round" stroke-linejoin="round" stroke-miterlimit="10" d="
	M20.345,34.217L1.758,53.006c-0.582,0.591-0.582,1.551,0,2.141l3.514,3.571c0.581,0.59,1.526,0.59,2.108,0l21.058-21.085"/>
<path fill="none" stroke="#000000" stroke-width="2" stroke-linecap="round" stroke-linejoin="round" stroke-miterlimit="10" d="
	M34.435,14.092c1.553,1.578,1.553,4.135,0,5.713l-5.997,6.229"/>
</svg>
