<?xml version="1.0" encoding="utf-8"?>
<!-- Generator: Adobe Illustrator 15.0.0, SVG Export Plug-In . SVG Version: 6.00 Build 0)  -->
<!DOCTYPE svg PUBLIC "-//W3C//DTD SVG 1.1//EN" "http://www.w3.org/Graphics/SVG/1.1/DTD/svg11.dtd">
<svg version="1.1" id="Layer_1" xmlns="http://www.w3.org/2000/svg" xmlns:xlink="http://www.w3.org/1999/xlink" x="0px" y="0px"
	 width="320px" height="200px" viewBox="0 0 320 200" enable-background="new 0 0 320 200" xml:space="preserve">
<polygon fill="#FFFFFF" points="11.359,129.433 11.359,139.143 30.685,139.143 30.685,189.055 41.479,189.055 41.479,139.143 
	60.802,139.143 60.802,129.433 "/>
<polygon fill="#FFFFFF" points="175.791,129.433 185.713,129.433 218.355,170.661 218.355,129.433 228.891,129.433 228.891,189.055 
	219.924,189.055 186.323,146.633 186.323,189.055 175.791,189.055 "/>
<polygon fill="#FFFFFF" points="262.938,129.433 308.115,129.433 308.115,138.797 273.645,138.797 273.645,154.305 304.195,154.305 
	304.195,163.669 273.645,163.669 273.645,179.691 308.549,179.691 308.549,189.055 262.938,189.055 "/>
<polygon fill="#FFFFFF" points="121.166,129.001 111.242,129.001 111.234,129.019 126.563,165.375 105.696,165.375 101.67,174.664 
	130.48,174.664 136.662,189.055 147.976,189.055 "/>
<g>
	<path fill="#FFFFFF" d="M138.925,72.723h29.946c16.513,0,29.947-13.435,29.947-29.947V12.829h-29.947
		c-16.512,0-29.946,13.435-29.946,29.947V72.723z M168.871,74.344h-31.567V42.776c0-17.407,14.161-31.568,31.567-31.568h31.567
		v31.568C200.438,60.183,186.277,74.344,168.871,74.344"/>
</g>
<rect x="168.06" y="-0.721" transform="matrix(0.707 0.7073 -0.7073 0.707 79.7405 -106.8998)" fill="#FFFFFF" width="1.621" height="86.994"/>
</svg>
