<?xml version="1.0" encoding="utf-8"?>
<!-- Generator: Adobe Illustrator 15.0.0, SVG Export Plug-In . SVG Version: 6.00 Build 0)  -->
<!DOCTYPE svg PUBLIC "-//W3C//DTD SVG 1.1//EN" "http://www.w3.org/Graphics/SVG/1.1/DTD/svg11.dtd">
<svg version="1.1" id="Layer_1" xmlns="http://www.w3.org/2000/svg" xmlns:xlink="http://www.w3.org/1999/xlink" x="0px" y="0px"
	 width="437.333px" height="91.333px" viewBox="0 0 437.333 91.333" enable-background="new 0 0 437.333 91.333"
	 xml:space="preserve">
<polygon fill="#FFFFFF" points="127.818,15.877 127.818,25.587 147.143,25.587 147.143,75.499 157.937,75.499 157.937,25.587 
	177.261,25.587 177.261,15.877 "/>
<polygon fill="#FFFFFF" points="292.25,15.877 302.171,15.877 334.814,57.104 334.814,15.877 345.349,15.877 345.349,75.499 
	336.382,75.499 302.782,33.077 302.782,75.499 292.25,75.499 "/>
<polygon fill="#FFFFFF" points="379.397,15.877 424.574,15.877 424.574,25.241 390.103,25.241 390.103,40.749 420.654,40.749 
	420.654,50.113 390.103,50.113 390.103,66.135 425.007,66.135 425.007,75.499 379.397,75.499 "/>
<polygon fill="#FFFFFF" points="237.625,15.445 227.701,15.445 227.693,15.463 243.021,51.818 222.154,51.818 218.128,61.107 
	246.939,61.107 253.121,75.499 264.435,75.499 "/>
<g>
	<path fill="#FFFFFF" d="M17.138,73.968h28.279c15.593,0,28.28-12.687,28.28-28.279v-28.28h-28.28
		c-15.593,0-28.279,12.687-28.279,28.28V73.968z M45.417,75.499h-29.81V45.688c0-16.438,13.373-29.812,29.81-29.812h29.81v29.812
		C75.228,62.126,61.854,75.499,45.417,75.499"/>
</g>
<rect x="44.652" y="4.613" transform="matrix(0.7068 0.7074 -0.7074 0.7068 45.6381 -18.7329)" fill="#FFFFFF" width="1.531" height="82.152"/>
</svg>
